Coordinates
version=1
nRows=13
nColumns=36
inDegrees=yes

Units are S.I. units (second, meters, Newtons, ...)
If the header above contains a line with 'inDegrees', this indicates whether rotational values are in degrees (yes) or radians (no).

endheader
time	pelvis_tilt	pelvis_list	pelvis_rotation	pelvis_tx	pelvis_ty	pelvis_tz	hip_flexion_r	hip_adduction_r	hip_rotation_r	knee_angle_r	knee_angle_r_beta	ankle_angle_r	subtalar_angle_r	mtp_angle_r	hip_flexion_l	hip_adduction_l	hip_rotation_l	knee_angle_l	knee_angle_l_beta	ankle_angle_l	subtalar_angle_l	mtp_angle_l	lumbar_extension	lumbar_bending	lumbar_rotation	arm_flex_r	arm_add_r	arm_rot_r	elbow_flex_r	pro_sup_r	arm_flex_l	arm_add_l	arm_rot_l	elbow_flex_l	pro_sup_l
      4.90000000	     -5.19530096	     -3.11476972	     17.11605854	      1.12099839	      0.68028085	     -0.14688706	     66.97730921	      4.29117277	     -5.82813332	     10.75383646	      0.18768985	     -5.30331887	     -3.83366106	     -7.49999987	     57.92824318	      1.82634470	    -11.58136567	     91.59238877	      1.59858875	     36.06709345	    -18.06603334	     -7.49999987	    -32.14538148	    -13.06552692	     12.06879429	     72.27814537	      3.60441022	     71.43346335	    111.07227188	     82.21176774	     93.17939066	     21.87834027	     67.41140007	    107.93810053	     75.60736024
      4.91666670	     -5.15664250	     -2.62005192	     17.48355264	      1.12133382	      0.67808086	     -0.14729330	     66.49516814	      4.01158921	     -5.23922357	     10.24138337	      0.17874586	     -5.06547663	     -3.90218698	     -7.49999987	     57.79103170	      2.27498156	    -11.70319319	     91.77770577	      1.60182315	     35.91273671	    -18.57630441	     -7.49999987	    -32.76929578	    -13.72944590	     11.19648808	     71.87353622	      3.72347435	     70.88861590	    111.36343427	     86.83637357	     93.95069205	     22.04865307	     68.12464732	    107.09689340	     78.39317832
      4.93333330	     -5.37051346	     -2.28866807	     17.97822858	      1.12150984	      0.67770648	     -0.14742904	     66.18694362	      3.53173508	     -4.78629696	      9.69650333	      0.16923591	     -5.21461201	     -3.80475506	     -7.49999987	     57.77171313	      2.56223060	    -12.01855018	     91.73703534	      1.60111331	     36.15758674	    -18.36613814	     -7.49999987	    -32.90472307	    -13.88826365	     10.32963726	     71.56262553	      4.00246849	     71.20922482	    110.77742360	     85.73815791	     93.95385885	     21.80337263	     68.70015518	    106.84652386	     77.57421498
      4.95000000	     -5.46727902	     -2.26204554	     18.03285351	      1.12107963	      0.67531005	     -0.14683339	     66.06996255	      3.59669020	     -4.40096451	      9.42366011	      0.16447390	     -5.16762501	     -3.81690565	     -7.49999987	     58.27903833	      2.43949595	    -12.24386322	     92.35639766	      1.61192322	     36.01590795	    -18.27509569	     -7.49999987	    -32.84493522	    -13.93150645	     10.08049286	     71.29586951	      4.29576965	     71.22304463	    110.49337303	     85.34240277	     94.26793505	     21.71571805	     68.81687718	    106.65632890	     77.27584886
      4.96666670	     -5.43646701	     -2.08556087	     18.59584292	      1.12110397	      0.67521286	     -0.14668972	     65.81744945	      3.31497790	     -3.37162986	      9.08438799	      0.15855248	     -5.62321950	     -4.84609641	     -7.49999987	     58.23399283	      2.52576496	    -12.41020853	     92.65357093	      1.61710988	     36.52735560	    -17.48519509	     -7.49999987	    -32.95831936	    -13.85714423	      9.48538599	     71.59527405	      4.47153086	     70.85009094	    110.83552427	     84.62254661	     94.44076609	     21.31374014	     69.21326859	    107.06620599	     76.64401306
      4.98333330	     -5.52522518	     -2.05417746	     19.11690133	      1.12056055	      0.67544590	     -0.14694285	     65.75445380	      3.00154982	     -3.09304331	      9.03590744	      0.15770634	     -5.64980376	     -4.89123318	     -7.49999987	     58.32761710	      2.73575842	    -12.49241368	     92.59528790	      1.61609265	     36.35788674	    -17.36987103	     -7.49999987	    -32.82977778	    -13.64512186	      9.25742300	     71.72678987	      4.49355741	     70.45315717	    111.24312864	     84.24406075	     94.29503443	     21.05490504	     69.22233107	    107.56875478	     76.36992585
      5.00000000	     -5.50967627	     -2.15272215	     19.77706835	      1.11973681	      0.67538060	     -0.14649101	     65.65300246	      2.75094873	     -3.06245469	      8.88825002	      0.15512923	     -5.68189040	     -4.78280016	     -7.49999987	     58.67740153	      2.71831810	    -12.58250743	     92.89879224	      1.62138980	     35.91398326	    -17.40892998	     -7.49999987	    -32.68464305	    -13.44377255	      8.96203117	     71.90925223	      4.49323672	     69.69076873	    112.21351010	     87.86040860	     94.43949905	     21.19451960	     69.13434877	    107.73088725	     78.97416162
      5.01666670	     -5.55110622	     -2.27174572	     20.32401209	      1.11889690	      0.67573044	     -0.14656578	     65.60480558	      2.50598538	     -3.12230321	      8.85881916	      0.15461556	     -5.48737341	     -4.53614771	     -7.49999987	     58.93890878	      2.82822476	    -12.45872127	     92.92724603	      1.62188641	     35.47658277	    -17.27766106	     -7.49999987	    -32.39135771	    -13.16735597	      8.97625466	     72.50401909	      4.49750649	     69.37668079	    112.64676804	     87.07290035	     94.57598483	     21.27611351	     69.11640716	    107.90607124	     78.40093297
      5.03333330	     -5.59711553	     -2.19838205	     20.60946467	      1.11911867	      0.67838826	     -0.14705618	     65.44788501	      2.39766844	     -3.02715193	      8.79699733	      0.15353657	     -5.38877013	     -4.08205095	     -7.49999987	     58.78795263	      3.07367864	    -12.43191341	     92.60347339	      1.61623551	     35.13714922	    -17.37079663	     -7.49999987	    -32.00437153	    -13.17427832	      9.68683070	     72.46432656	      3.50013478	     69.36895047	    113.67902645	     86.77010487	     94.49795389	     21.96526833	     69.40699072	    107.71878807	     78.36698696
      5.05000000	     -5.61170005	     -2.06519860	     20.68759591	      1.11443615	      0.68037607	     -0.14441136	     65.23954111	      2.50804073	     -3.08746157	      8.86114012	      0.15465607	     -5.23730335	     -4.10877147	     -7.49999987	     58.91757289	      3.39691406	    -12.10239026	     92.10595575	      1.60755219	     34.58038435	    -17.14233097	     -7.49999987	    -31.89203528	    -13.25296543	      9.87920423	     72.65613357	      3.14925395	     69.23926426	    113.59047875	     86.78634254	     94.48090763	     22.00422299	     69.31376488	    108.01404383	     78.39450789
      5.06666670	     -5.67984181	     -1.67572429	     20.65398065	      1.11538217	      0.68317315	     -0.14536561	     65.20527710	      2.52442023	     -2.56190817	      9.06201567	      0.15816201	     -4.98744219	     -4.01482361	     -7.49999987	     58.44555714	      4.05570056	    -11.93922634	     91.08380899	      1.58971236	     34.03406848	    -18.04633201	     -7.49999987	    -31.88936967	    -13.27144336	      9.83576459	     72.83487862	      3.05521330	     69.47996405	    113.32389698	     85.93920201	     92.90046436	     21.39332474	     69.21386256	    109.76109930	     77.85284673
      5.08333330	     -5.77701258	     -1.66585808	     20.61942627	      1.11516448	      0.68383688	     -0.14566167	     65.31810194	      2.77925147	     -2.26455273	      9.35068372	      0.16320022	     -4.72669853	     -4.11483322	     -7.49999987	     58.46697699	      4.32881724	    -11.67669385	     90.68883315	      1.58281873	     33.73399261	    -18.35916696	     -7.49999987	    -31.80622666	    -13.21605052	      9.86618626	     73.00856277	      3.00739206	     69.47907619	    113.22099611	     85.46550364	     91.65370879	     21.14714720	     69.56662867	    110.41222002	     77.54759236
      5.10000000	     -6.17148967	     -1.85351562	     20.31919996	      1.11485242	      0.68614009	     -0.14552475	     65.82095704	      3.25715034	     -1.27405981	      9.66841121	      0.16874561	     -5.39509777	     -5.25272900	     -7.49999987	     58.65593200	      4.51040967	    -11.38450911	     90.00544124	      1.57089129	     33.60412758	    -18.94694443	     -7.49999987	    -31.07207532	    -12.93546780	      9.97919634	     73.27069534	      3.38013842	     69.82231234	    112.57479362	     84.94856614	     89.80042435	     20.28493642	     69.44569900	    111.96404742	     77.32743874
